<svg xmlns="http://www.w3.org/2000/svg" width="191" height="100" viewBox="0 0 191 100">
  <g id="Group_21" data-name="Group 21" transform="translate(-356 -340.258)">
    <rect id="Rectangle_2" data-name="Rectangle 2" width="4.494" height="66.288" transform="matrix(0.719, 0.695, -0.695, 0.719, 414.641, 348.475)" fill="#bcffc6"/>
    <circle id="Ellipse_2" data-name="Ellipse 2" cx="14" cy="14" r="14" transform="translate(361 376.258)" fill="#bcffc6"/>
    <rect id="Rectangle_1" data-name="Rectangle 1" width="4.494" height="66.288" transform="matrix(0.719, 0.695, -0.695, 0.719, 411.271, 347.351)" fill="#99f4a1"/>
    <rect id="Rectangle_11" data-name="Rectangle 11" width="4.494" height="66.288" transform="matrix(-0.695, 0.719, -0.719, -0.695, 416.39, 424.496)" fill="#fcb5b5"/>
    <rect id="Rectangle_12" data-name="Rectangle 12" width="4.494" height="66.288" transform="matrix(-0.695, 0.719, -0.719, -0.695, 417.513, 430.114)" fill="#f08181"/>
    <circle id="Ellipse_1" data-name="Ellipse 1" cx="14" cy="14" r="14" transform="translate(356 376.258)" fill="#99f4a1"/>
    <text id="_0" data-name="0" transform="translate(367 392.258)" fill="#fff" font-size="11" font-family="HelveticaNeue-Bold, Helvetica Neue" font-weight="700"><tspan x="0" y="0">0</tspan></text>
    <circle id="Ellipse_9" data-name="Ellipse 9" cx="14" cy="14" r="14" transform="translate(401 340.258)" fill="#bcffc6"/>
    <rect id="Rectangle_7" data-name="Rectangle 7" width="4.494" height="66.288" transform="matrix(0.017, 1, -1, 0.017, 488.36, 351.856)" fill="#bcffc6"/>
    <rect id="Rectangle_8" data-name="Rectangle 8" width="4.494" height="66.288" transform="matrix(0.017, 1, -1, 0.017, 486.771, 348.678)" fill="#99f4a1"/>
    <rect id="Rectangle_13" data-name="Rectangle 13" width="4.494" height="66.288" transform="matrix(-0.695, 0.719, -0.719, -0.695, 455.713, 394.161)" fill="#fcb5b5"/>
    <rect id="Rectangle_14" data-name="Rectangle 14" width="4.494" height="66.288" transform="matrix(-0.695, 0.719, -0.719, -0.695, 456.836, 399.779)" fill="#f08181"/>
    <circle id="Ellipse_10" data-name="Ellipse 10" cx="14" cy="14" r="14" transform="translate(396 340.258)" fill="#99f4a1"/>
    <text id="_1" data-name="1" transform="translate(407 356.258)" fill="#fff" font-size="11" font-family="HelveticaNeue-Bold, Helvetica Neue" font-weight="700"><tspan x="0" y="0">1</tspan></text>
    <circle id="Ellipse_11" data-name="Ellipse 11" cx="14" cy="14" r="14" transform="translate(401 412.258)" fill="#fcb5b5"/>
    <rect id="Rectangle_3" data-name="Rectangle 3" width="4.494" height="66.288" transform="matrix(0.719, 0.695, -0.695, 0.719, 451.718, 385.551)" fill="#fcb5b5"/>
    <rect id="Rectangle_4" data-name="Rectangle 4" width="4.494" height="66.288" transform="matrix(0.719, 0.695, -0.695, 0.719, 448.347, 384.427)" fill="#f08181"/>
    <circle id="Ellipse_12" data-name="Ellipse 12" cx="14" cy="14" r="14" transform="translate(396 412.258)" fill="#f08181"/>
    <text id="_2" data-name="2" transform="translate(407 428.258)" fill="#fff" font-size="11" font-family="HelveticaNeue-Bold, Helvetica Neue" font-weight="700"><tspan x="0" y="0">2</tspan></text>
    <circle id="Ellipse_13" data-name="Ellipse 13" cx="14" cy="14" r="14" transform="translate(440 376.258)" fill="#fcb5b5"/>
    <rect id="Rectangle_15" data-name="Rectangle 15" width="4.494" height="66.288" transform="matrix(-0.695, 0.719, -0.719, -0.695, 496.16, 428.99)" fill="#fcb5b5"/>
    <rect id="Rectangle_16" data-name="Rectangle 16" width="4.494" height="66.288" transform="matrix(-0.695, 0.719, -0.719, -0.695, 497.283, 434.608)" fill="#f08181"/>
    <circle id="Ellipse_14" data-name="Ellipse 14" cx="14" cy="14" r="14" transform="translate(435 376.258)" fill="#f08181"/>
    <text id="_3" data-name="3" transform="translate(446 392.258)" fill="#fff" font-size="11" font-family="HelveticaNeue-Bold, Helvetica Neue" font-weight="700"><tspan x="0" y="0">3</tspan></text>
    <circle id="Ellipse_21" data-name="Ellipse 21" cx="14" cy="14" r="14" transform="translate(480 340.258)" fill="#bcffc6"/>
    <rect id="Rectangle_17" data-name="Rectangle 17" width="4.494" height="66.288" transform="matrix(-0.695, 0.719, -0.719, -0.695, 537.73, 391.914)" fill="#bcffc6"/>
    <rect id="Rectangle_18" data-name="Rectangle 18" width="4.494" height="66.288" transform="matrix(-0.695, 0.719, -0.719, -0.695, 538.854, 397.532)" fill="#99f4a1"/>
    <rect id="Rectangle_9" data-name="Rectangle 9" width="4.494" height="66.288" transform="matrix(-1, 0.017, -0.017, -1, 490.532, 425.186)" fill="#fcb5b5"/>
    <rect id="Rectangle_10" data-name="Rectangle 10" width="4.494" height="66.288" transform="matrix(-1, 0.017, -0.017, -1, 493.709, 423.597)" fill="#f08181"/>
    <circle id="Ellipse_22" data-name="Ellipse 22" cx="14" cy="14" r="14" transform="translate(474 340.258)" fill="#99f4a1"/>
    <text id="_4" data-name="4" transform="translate(485 356.258)" fill="#fff" font-size="11" font-family="HelveticaNeue-Bold, Helvetica Neue" font-weight="700"><tspan x="0" y="0">4</tspan></text>
    <circle id="Ellipse_23" data-name="Ellipse 23" cx="14" cy="14" r="14" transform="translate(480 412.258)" fill="#fcb5b5"/>
    <rect id="Rectangle_5" data-name="Rectangle 5" width="4.494" height="66.288" transform="matrix(0.719, 0.695, -0.695, 0.719, 530.364, 385.551)" fill="#fcb5b5"/>
    <rect id="Rectangle_6" data-name="Rectangle 6" width="4.494" height="66.288" transform="matrix(0.719, 0.695, -0.695, 0.719, 526.994, 384.427)" fill="#f08181"/>
    <circle id="Ellipse_24" data-name="Ellipse 24" cx="14" cy="14" r="14" transform="translate(474 412.258)" fill="#f08181"/>
    <text id="_5" data-name="5" transform="translate(485 428.258)" fill="#fff" font-size="11" font-family="HelveticaNeue-Bold, Helvetica Neue" font-weight="700"><tspan x="0" y="0">5</tspan></text>
    <circle id="Ellipse_25" data-name="Ellipse 25" cx="14" cy="14" r="14" transform="translate(519 376.258)" fill="#bcffc6"/>
    <circle id="Ellipse_26" data-name="Ellipse 26" cx="14" cy="14" r="14" transform="translate(513 376.258)" fill="#99f4a1"/>
    <text id="_6" data-name="6" transform="translate(525 392.258)" fill="#fff" font-size="11" font-family="HelveticaNeue-Bold, Helvetica Neue" font-weight="700"><tspan x="0" y="0">6</tspan></text>
  </g>
</svg>
